<svg xmlns="http://www.w3.org/2000/svg" viewBox="0 0 376.42 64"><defs><style>.cls-1{fill:#293033;}.cls-2{fill:#ffbc00;}</style></defs><title>ahola_logo_by</title><g id="Warstwa_2" data-name="Warstwa 2"><g id="Warstwa_1-2" data-name="Warstwa 1"><path class="cls-1" d="M92,63.27,87.08,44.82H66.8L62,63.27H56.53L73.71.73h6.64L97.53,63.27ZM77.17,8h-.46L68.17,40.09H85.71Z"/><polygon class="cls-1" points="147.17 63.27 147.17 34.18 123.17 34.18 123.17 63.27 117.89 63.27 117.89 0.73 123.17 0.73 123.17 29.18 147.17 29.18 147.17 0.73 152.44 0.73 152.44 63.27 147.17 63.27"/><path class="cls-1" d="M182.08,61.64q-3.74-2.37-4.87-8.64t-1.13-21q0-14.73,1.13-21t4.87-8.64Q185.8,0,194.53,0t12.55,2.36q3.72,2.37,4.81,8.59T213,32q0,14.82-1.1,21t-4.81,8.59Q203.35,64,194.53,64t-12.45-2.36m21.36-3.87c1.64-.94,2.74-3.19,3.32-6.77s.86-9.91.86-19-.29-15.42-.86-19-1.68-5.83-3.32-6.77-4.61-1.41-8.91-1.41-7.27.47-8.91,1.41S182.88,9.42,182.3,13s-.86,9.91-.86,19,.29,15.43.86,19,1.68,5.83,3.32,6.77,4.61,1.41,8.91,1.41,7.27-.47,8.91-1.41"/><polygon class="cls-1" points="236.62 63.27 236.62 0.73 242.08 0.73 242.08 58.36 263.08 58.36 263.08 63.27 236.62 63.27"/><path class="cls-1" d="M313.26,63.27l-4.91-18.45H288.08l-4.82,18.45H277.8L295,.73h6.64L318.8,63.27ZM298.44,8H298l-8.55,32.09H307Z"/><path class="cls-2" d="M348,40.33h-9.94v-5c0-.37,0-.73.05-1.09a11.32,11.32,0,0,1,5.81-8.87A11.84,11.84,0,0,1,355,25.13l8.92,4.47a1.94,1.94,0,0,0,1.79-.06,1.33,1.33,0,0,0,.75-1.08,1.34,1.34,0,0,0,0-.2v-5h9.94v5a10,10,0,0,1-.05,1.1,11.34,11.34,0,0,1-5.81,8.87,11.87,11.87,0,0,1-11.08.26L350.56,34a1.92,1.92,0,0,0-1.78,0,1.37,1.37,0,0,0-.76,1.08c0,.07,0,.14,0,.2Z"/><path class="cls-2" d="M38.35,40.33H28.41v-5a1.21,1.21,0,0,0,0-.19,1.34,1.34,0,0,0-.75-1.09,1.94,1.94,0,0,0-1.79,0l-8.92,4.46a11.87,11.87,0,0,1-11.08-.26A11.34,11.34,0,0,1,.05,29.35c0-.35,0-.72,0-1.09v-5H9.94v5c0,.07,0,.13,0,.19a1.35,1.35,0,0,0,.75,1.09,1.94,1.94,0,0,0,1.79.06l8.92-4.47a11.84,11.84,0,0,1,11.08.27,11.34,11.34,0,0,1,5.81,8.87,9.83,9.83,0,0,1,.05,1.09Z"/></g></g></svg>