<svg xmlns="http://www.w3.org/2000/svg" viewBox="0 0 586.86 128"><defs><style>.cls-1{fill-rule:evenodd;}</style></defs><g id="Warstwa_2" data-name="Warstwa 2"><g id="Warstwa_1-2" data-name="Warstwa 1"><path class="cls-1" d="M585.46,53h-6.34c-2.78.72-7.79.7-10.57,1.41-8-.19-14.26-.18-20.16-.1-.29-4.13-.64-8.37-1.08-12.72A5.82,5.82,0,0,0,545,37.24a7.17,7.17,0,0,0-4.08-1.32,5.89,5.89,0,0,0-3.79,1.32,4.18,4.18,0,0,0-1.65,3.43.68.68,0,0,0,.09.44c.07.06.1.21.1.44l1,12.92c-7,.11-14.7.16-25.13-.1-3.34.44-7.15.72-11.15.93a32.9,32.9,0,0,1,1.5-7.76v-.71a3.66,3.66,0,0,0-2.23-3.43,9.28,9.28,0,0,0-4.18-1.14,4.77,4.77,0,0,0-3.6,1.32A8,8,0,0,0,490,46.75a15.45,15.45,0,0,0-.68,4c-.07,1.46-.1,2.78-.1,4,0,.34,0,.67,0,1-7.95.28-15.88.58-22.15,1.43l-3,0c0-2.2.07-4.49.13-6.89q.19-8.1.49-16.2t.77-15.41q.48-7.3,1.07-12.41a5,5,0,0,0-2-4.4A7.26,7.26,0,0,0,460.34.53a5.14,5.14,0,0,0-3.41,1.23,5.34,5.34,0,0,0-1.65,3.87q-.58,4.94-1.16,10.92t-1,12.41q-.39,6.43-.58,12.94t-.19,12.68v2.89l-11.89.27q.3-6.26.3-12.67,0-10.56-.38-20.6T439,6A6.45,6.45,0,0,0,436.7,1.5,6.56,6.56,0,0,0,432.62,0a5.05,5.05,0,0,0-3.49,1.41,5,5,0,0,0-1.56,3.87,4.14,4.14,0,0,0,.2,1.41q.76,6.51,1.26,15.67t.48,19.19q0,8.22-.14,16.44c-12.51.27-24,.43-35.66.22a18.75,18.75,0,0,1,4.71-8.12A20.1,20.1,0,0,1,413,44.19a13.56,13.56,0,0,1,4.27.71,14.22,14.22,0,0,0,4.47.7,3,3,0,0,0,2.33-1.14,4.34,4.34,0,0,0,1-2.91,5.38,5.38,0,0,0-1.27-3.7,7.87,7.87,0,0,0-3.2-2.11,16.16,16.16,0,0,0-4.28-.88c-1.55-.11-3.05-.17-4.47-.17a30,30,0,0,0-14.08,3.08A29.05,29.05,0,0,0,388,45.69a32.11,32.11,0,0,0-5.54,10.74c-.14.48-.25,1-.37,1.44-4-.17-8.08-.39-12.24-.67h-.14a31,31,0,0,0-1.55-5.44,29.59,29.59,0,0,0-5.93-9.5,27.78,27.78,0,0,0-20.69-8.81,17.88,17.88,0,0,0-2.82.27c-1.1.17-2.11.32-3,.44a6.26,6.26,0,0,0-3.11-.88,11,11,0,0,0-3.5.88,16.63,16.63,0,0,0-9,3.17,24,24,0,0,0-6.31,7,31.7,31.7,0,0,0-3.69,9.24,44.73,44.73,0,0,0-.95,5.77c-3.75-.27-7.58-.57-11.4-.84A31.3,31.3,0,0,0,296,51.76a29.59,29.59,0,0,0-5.93-9.5,27.73,27.73,0,0,0-20.69-8.81,17.88,17.88,0,0,0-2.82.27c-1.1.17-2.11.32-3,.44a6.26,6.26,0,0,0-3.11-.88,11,11,0,0,0-3.5.88,16.57,16.57,0,0,0-9,3.17,23.9,23.9,0,0,0-6.32,7,32.27,32.27,0,0,0-3.69,9.24c-.26,1.12-.46,2.23-.64,3.33-4.2,0-8.51,0-13-.17.16-3.85.26-7.75.26-11.7q0-10.56-.39-20.6T222.8,6a6.44,6.44,0,0,0-2.33-4.49A6.6,6.6,0,0,0,216.39,0a5.06,5.06,0,0,0-3.5,1.41,5,5,0,0,0-1.56,3.87,4.14,4.14,0,0,0,.2,1.41c.51,4.34.94,9.57,1.26,15.67s.49,12.5.49,19.19c0,5.32-.06,10.64-.14,16a37.18,37.18,0,0,1-6,1.1c-8.66-1.71-11.14,1-19,1.41-4-.33-7.34-.88-10.74-1.41a18.86,18.86,0,0,1,4.83-8.52,20.06,20.06,0,0,1,14.57-5.9,13.56,13.56,0,0,1,4.27.71,14.22,14.22,0,0,0,4.47.7,3,3,0,0,0,2.34-1.14,4.39,4.39,0,0,0,1-2.91,5.38,5.38,0,0,0-1.27-3.7,7.87,7.87,0,0,0-3.2-2.11,16.16,16.16,0,0,0-4.28-.88c-1.55-.11-3-.17-4.47-.17a30.06,30.06,0,0,0-14.08,3.08,29.15,29.15,0,0,0-9.72,7.92,32.11,32.11,0,0,0-5.54,10.74c-.08.28-.14.56-.22.84l-1.17-.07a53,53,0,0,0-11.15,1.34A31.3,31.3,0,0,0,152,51.76a29.59,29.59,0,0,0-5.93-9.5,27.73,27.73,0,0,0-20.69-8.81,17.88,17.88,0,0,0-2.82.27c-1.1.17-2.11.32-3,.44a6.26,6.26,0,0,0-3.11-.88,11,11,0,0,0-3.5.88,16.57,16.57,0,0,0-9,3.17,23.9,23.9,0,0,0-6.32,7,32.27,32.27,0,0,0-3.69,9.24c-.31,1.34-.54,2.67-.73,4-3.51-.15-7.05-.29-10.7-.39Q70,58,59.18,59.32c-1.64,0-3.23.08-4.8.14a50.86,50.86,0,0,1-.68-8.58V47.36c0-1.17.07-2.4.2-3.7H69.15a31.23,31.23,0,0,0,5.63-.44,9.52,9.52,0,0,0,4-1.58A4.19,4.19,0,0,0,80.32,38a4,4,0,0,0-1.75-3.17,6.87,6.87,0,0,0-4.47-1.41q-3.3.36-6.5.53t-6.32.18c-1.17,0-2.3,0-3.4-.09s-2.17-.15-3.21-.26q.59-8.1,1.75-15.5a79.58,79.58,0,0,0,1.17-11.8A5.93,5.93,0,0,0,55.84,2,5.53,5.53,0,0,0,52,.35Q49,.35,47.29,3.43a28.59,28.59,0,0,0-2.82,7.84A70.09,70.09,0,0,0,43,21.92c-.26,3.93-.38,7.78-.38,11.53a44.61,44.61,0,0,1-7.19-.53,36.78,36.78,0,0,0-5.64-.52,5.87,5.87,0,0,0-3.88,1.14,5.05,5.05,0,0,0-1.75,2.73c0,2.94,1.68,4.84,5,5.72a51,51,0,0,0,12.63,1.32v7.4a63.32,63.32,0,0,0,.67,9.41c-4.57.36-8.86.8-12.93,1.31-6.67-.34-7.46,1.28-14.8.71C13.26,63.75.16,61.49,2.12,64.25,2,64.69,1.8,65.09,0,65c2.76,5.93,15.42,3.39,29.59,3.53C34.47,67.91,39.26,67.4,44,67a32.78,32.78,0,0,0,6.78,12.46q8.93,10,28,11.44a4.68,4.68,0,0,0,4-1.67A6.15,6.15,0,0,0,84,85.39a4.45,4.45,0,0,0-1-2.82A4.79,4.79,0,0,0,79.93,81,42,42,0,0,1,67.5,77.47a23.38,23.38,0,0,1-8.16-6.34,22.45,22.45,0,0,1-3.11-5.23C68.16,65,80.07,64.4,92.71,64a25.46,25.46,0,0,0,2.4,10.52,26.76,26.76,0,0,0,6.71,8.8,31.5,31.5,0,0,0,10.29,5.81,39.67,39.67,0,0,0,13.22,2.11,27.3,27.3,0,0,0,11.07-2.29,30.58,30.58,0,0,0,9.23-6.16,28.4,28.4,0,0,0,6.22-8.89,25.45,25.45,0,0,0,2-6.93c3.53,0,7.1-.1,10.74-.22,0,.42-.05.84-.05,1.25A23,23,0,0,0,167,79.32a19.12,19.12,0,0,0,6.9,7.13,29.91,29.91,0,0,0,10.2,3.7,69,69,0,0,0,12.24,1,71.65,71.65,0,0,0,9.91-.7,41.31,41.31,0,0,0,8-1.76,6.71,6.71,0,0,0,2.72.7,5.55,5.55,0,0,0,3.11-1A5,5,0,0,0,222,84.86q.94-8.73,1.71-18.56c4.37-.43,8.75-.86,13-1.34h.07a25.27,25.27,0,0,0,2.35,9.51,26.63,26.63,0,0,0,6.71,8.8,31.5,31.5,0,0,0,10.29,5.81,39.67,39.67,0,0,0,13.22,2.11,27.3,27.3,0,0,0,11.07-2.29,30.58,30.58,0,0,0,9.23-6.16,28.4,28.4,0,0,0,6.22-8.89,25.78,25.78,0,0,0,2.06-7.54c3.77,0,7.5,0,11.15.1a24.94,24.94,0,0,0,2.26,8.06,26.73,26.73,0,0,0,6.7,8.8,31.65,31.65,0,0,0,10.3,5.81,39.67,39.67,0,0,0,13.22,2.11,27.34,27.34,0,0,0,11.07-2.29,30.7,30.7,0,0,0,9.23-6.16,28.57,28.57,0,0,0,6.22-8.89,25.56,25.56,0,0,0,2.18-9.44c3.48,0,7,0,10.66,0-.11,1.18-.19,2.34-.19,3.5a22.9,22.9,0,0,0,2.53,11.36,19.12,19.12,0,0,0,6.9,7.13,29.91,29.91,0,0,0,10.2,3.7,68.87,68.87,0,0,0,12.24,1,71.65,71.65,0,0,0,9.91-.7,41,41,0,0,0,8-1.76,6.78,6.78,0,0,0,2.72.7,5.56,5.56,0,0,0,3.12-1,5,5,0,0,0,1.94-3.53q1-9,1.75-19.1c0-.56.07-1.13.11-1.69,4.16-.06,8.57,0,12.25-.28V68.4a33,33,0,0,0,1.55,10.65,17.38,17.38,0,0,0,5.44,7.84q3.88,3.26,11.85,5a7.54,7.54,0,0,0,2.72.52,4.71,4.71,0,0,0,3.89-1.67A5.8,5.8,0,0,0,479.18,87,5.22,5.22,0,0,0,478,83.72a5.83,5.83,0,0,0-3.31-2,18.58,18.58,0,0,1-6.22-2.28,9.35,9.35,0,0,1-3.2-3.44,10.85,10.85,0,0,1-1.17-4.75Q464,68.49,464,65V63.36a16.47,16.47,0,0,0,3.07.19c4.42-.4,6-1.75,12.68-1.41,3.65.07,7,0,10.22,0a35.9,35.9,0,0,0,1.25,4.54,27.31,27.31,0,0,0,6.51,10.21A31.6,31.6,0,0,0,509.22,84a48.72,48.72,0,0,0,17.11,2.64q4.26,0,5.73-1.23a4.57,4.57,0,0,0,1.45-3.7,4.78,4.78,0,0,0-1.45-3.43,4.29,4.29,0,0,0-3-1.5,9.22,9.22,0,0,0-1.17.09,7.68,7.68,0,0,1-1.17.09,36.7,36.7,0,0,1-10.29-1.41,26.78,26.78,0,0,1-8.46-4A19,19,0,0,1,502.33,65,17.44,17.44,0,0,1,501,61.6c4.26-.27,8.36-.59,12.58-.87,8.58.31,15.86.19,23.49,0l.51,6.75a67.4,67.4,0,0,1,.38,7.13q0,3.61.2,7a90.82,90.82,0,0,1-.58,10.74,17.08,17.08,0,0,1-3.7,8.19,38.85,38.85,0,0,1-7.67,7.3,54.39,54.39,0,0,1-10.11,5.81,60.73,60.73,0,0,1-10.78,3.7,4,4,0,0,0-2.82,1.67,5.18,5.18,0,0,0-.87,2.91,6.87,6.87,0,0,0,1.45,4.22,4.56,4.56,0,0,0,3.8,1.94,25.22,25.22,0,0,0,7-1.06,52.46,52.46,0,0,0,7.38-2.73,60,60,0,0,0,7.09-3.78q3.4-2.12,6.13-4.05a38.31,38.31,0,0,0,9.32-9.24,30,30,0,0,0,4.28-9.42,40,40,0,0,0,1.16-9.6v-10q0-8.94-.48-17.88c2.91-.1,6-.19,9.21-.27C572.25,60,592.36,59.33,585.46,53ZM104.54,57.49a22.18,22.18,0,0,1,1.26-6.25A14.14,14.14,0,0,1,109,46a10.13,10.13,0,0,1,6.21-2.73,8.41,8.41,0,0,0,3.11-.7,8.9,8.9,0,0,1,3.31-.71h3.69a17.61,17.61,0,0,1,13,6.43,21.89,21.89,0,0,1,4.72,12.26l-1.46.14c-12.19-.92-24.31-1.86-37.11-2.58C104.52,57.92,104.52,57.72,104.54,57.49Zm34.1,18.31a15.88,15.88,0,0,1-5.64,4,19,19,0,0,1-7.67,1.49,25.38,25.38,0,0,1-9.52-1.58,20.08,20.08,0,0,1-6.51-4.14,15.2,15.2,0,0,1-3.79-5.81,19.22,19.22,0,0,1-1.16-6.22l1.33,0a243.27,243.27,0,0,0,37.22,3.33,18.32,18.32,0,0,1-.86,3.19A18.09,18.09,0,0,1,138.64,75.8ZM249.83,51.24A14.14,14.14,0,0,1,253,46a10.13,10.13,0,0,1,6.21-2.73,8.41,8.41,0,0,0,3.11-.7,8.89,8.89,0,0,1,3.3-.71h3.7a17.61,17.61,0,0,1,13,6.43,20.93,20.93,0,0,1,4.34,9.56c-8.18-.36-16-.31-22.52.72a121,121,0,0,0-15.6-1.47A22.14,22.14,0,0,1,249.83,51.24ZM212.3,79.58q-3.88.36-8,1.06a44.7,44.7,0,0,1-7.58.7q-11.07,0-15.84-3.61A11.61,11.61,0,0,1,176.16,68c0-.3,0-.57,0-.86a95.38,95.38,0,0,0,18.26,2.8c5.58-1,11.91-1.81,18.48-2.51C212.78,71.8,212.58,75.87,212.3,79.58Zm73.77-9.51a18.28,18.28,0,0,1-3.4,5.73,15.88,15.88,0,0,1-5.64,4,19,19,0,0,1-7.67,1.49,25.38,25.38,0,0,1-9.52-1.58,20.08,20.08,0,0,1-6.51-4.14,15.08,15.08,0,0,1-3.79-5.81,19.65,19.65,0,0,1-1-4.31c12.88.45,27.14.68,32.59,1.58,1.93-.18,3.89-.32,5.85-.43A17.91,17.91,0,0,1,286.07,70.07Zm36-18.83a14.25,14.25,0,0,1,3.2-5.2,10.19,10.19,0,0,1,6.22-2.73,8.45,8.45,0,0,0,3.11-.7,8.89,8.89,0,0,1,3.3-.71h3.7a17.57,17.57,0,0,1,13,6.43,20.85,20.85,0,0,1,4.3,9.32c-13.57.44-27.91.61-38.21,2.14,0-.75.06-1.5.1-2.3A22.2,22.2,0,0,1,322,51.24Zm36.24,18.83a18.28,18.28,0,0,1-3.4,5.73,15.88,15.88,0,0,1-5.64,4,19,19,0,0,1-7.67,1.49A25.43,25.43,0,0,1,332,79.76a20,20,0,0,1-6.5-4.14,15.08,15.08,0,0,1-3.79-5.81,19.16,19.16,0,0,1-.83-3c3.1.11,6.05.22,8.8.29,10.56-1.25,20.1-2,29.67-2.4A19,19,0,0,1,358.28,70.07Zm70.26,9.51q-3.89.36-8,1.06a44.7,44.7,0,0,1-7.58.7q-11.07,0-15.84-3.61A11.61,11.61,0,0,1,392.4,68c0-1.1.05-2.16.12-3.19l4.84.19c13.69.41,21.05-1.42,29.58.71a8.52,8.52,0,0,1,2.3-.79C429.09,70.26,428.87,75.18,428.54,79.58Z"/></g></g></svg>